/* XPM */
static char *_91abebf51f9494abc58ad4926fd6a3aKE4kGGegNwUzlc0V[] = {
/* columns rows colors chars-per-pixel */
"32 32 7 1 ",
"  c None",
". c gray39",
"X c #B53121",
"o c #9C4A00",
"O c #E69C21",
"+ c #E79C21",
"@ c gray99",
/* pixels */
"                                ",
"                                ",
"                                ",
"                                ",
"                                ",
"                                ",
"                                ",
"                                ",
"                                ",
"              OOOO..            ",
"             OOOOOO..           ",
"             OOooOO..           ",
"            OOoOO.OO..          ",
"            OOoOO.OO..          ",
"            OOoOO.OO..          ",
"            OOoOO.OO..          ",
"            OOoOO.OO..          ",
"            OOoOO.OO..          ",
"            OOoOO.OO..          ",
"            OOoOO.OO..          ",
"             OO..OO..           ",
"             OOOOOO..           ",
"              OOOO..            ",
"                                ",
"                                ",
"                                ",
"                                ",
"                                ",
"                                ",
"                                ",
"                                ",
"                                ",
};
