/* XPM */
static char *_71b47ff555d438cadfa0fcf82310b26xiPP0ttR7TM5nbHC[] = {
/* columns rows colors chars-per-pixel */
"32 32 4 1 ",
"  c None",
". c #104C00",
"X c #109400",
"o c #8CD600",
/* pixels */
"................................",
".oooooooooooooooooooooooooooooo.",
".XXXXXooooooXXXXXXXXXXXXXXXXXXX.",
".oooXXooooooXooXXXXXXXXXXoXoXoo.",
".oooXXooooooXooXXXXXXXXXXXoXooo.",
".oooXXooooooXooXXXXXXXXXXoXoXoo.",
".oooXXooooooXooXXXXXXXXXXXoXooo.",
".oooXXooooooXooXXXXXXXXXXoXoXoo.",
".oooXXooooooXooXXXXXXXXXXXoXooo.",
".oooXXooooooXooXXXXXXXXXXoXoXoo.",
".oooXXooooooXooXXXXXXXXXXXoXooo.",
".oooXXooooooXooXXXXXXXXXXoXoXoo.",
".oooXXooooooXooXXXXXXXXXXXoXooo.",
".oooXXooooooXooXXXXXXXXXXoXoXoo.",
"................................",
"  ............................  ",
"  .oooXXoooooXooXXXXXXXXoXooo.  ",
"  .oooXXoooooXooXXXXXXXXXoXoo.  ",
"  .oooXXoooooXooXXXXXXXXoXooo.  ",
"  .oooXXoooooXooXXXXXXXXXoXoo.  ",
"  .oooXXoooooXooXXXXXXXXoXooo.  ",
"  .oooXXoooooXooXXXXXXXXXoXoo.  ",
"  .oooXXoooooXooXXXXXXXXoXooo.  ",
"  .oooXXoooooXooXXXXXXXXXoXoo.  ",
"  .oooXXoooooXooXXXXXXXXoXooo.  ",
"  .oooXXoooooXooXXXXXXXXXoXoo.  ",
"  .oooXXoooooXooXXXXXXXXoXooo.  ",
"  .oooXXoooooXooXXXXXXXXXoXoo.  ",
"  .oooXXoooooXooXXXXXXXXoXooo.  ",
"  .oooXXoooooXooXXXXXXXXXoXoo.  ",
"  .oooXXoooooXooXXXXXXXXoXooo.  ",
"  .oooXXoooooXooXXXXXXXXXoXoo.  "
};
