/* XPM */
static char *caa3b95813d04598ffdcc1681d135c13a2vew3ayTFOJp9S4[] = {
/* columns rows colors chars-per-pixel */
"32 32 17 1 ",
"  c None",
". c #543F2D",
"X c #5D4631",
"o c #695235",
"O c #755E38",
"+ c #456231",
"@ c #4A6733",
"# c #4E6B34",
"$ c #547237",
"% c #597837",
"& c #5B793A",
"* c #826C3C",
"= c #65823A",
"- c #6A873D",
"; c #6D8B3E",
": c #748F42",
"> c #849E46",
/* pixels */
"            && &&&              ",
"        && &>>&:::&  &&&        ",
"       &>>&&>>>:>>:&&:::&       ",
"       &>>>&:>>>>>:&:>>:&       ",
"      &&:>>>-:>>::&>>>>&        ",
"     &::&:>>>>>::>>>>:&&        ",
"     &::>>>>:>>:>>>:::::&#      ",
"   $$&::>>::>>>:>>>>::::&=#     ",
"  $::$$$:::=>>:>>:>>>&::&==#    ",
" $$::$::$==::::>>>->>&&&===#    ",
"$::$>>::$==::::->>&::&=;;##     ",
"$:>>>>:$==---::----&&==;;;;##   ",
" $>>:>>::-::---------$$==;;==#  ",
"$::::>>::-::::%--$$-$::$;;;=### ",
"$::$::$-----::-%$::$:>>$$;;;===#",
" $$$::$-::-%---$:>>::>>::$;;#==#",
" @--$$-::::-#--$:>>>>>>:$$===## ",
" @----::-::--#%%$$:>>>:>>:#===# ",
"  @@@-::--#--#%$:>>>>>>>>::#==# ",
"   @-------##%$::>>:>>>=:::=##  ",
"   @--@-#--#%%$::$:>>=::====@   ",
"    @@---##%%+%$$%:>>=::=====@  ",
"     @--@%%%%%+%%@::======@==@  ",
"      @@@%%+%%++@======@==@@@   ",
"         ++.++oo@===@==@@@      ",
"           .**Xoo@@@.@@         ",
"           Xo*XoOooo.           ",
"           XOOoOOOooX           ",
"           XooOOOOOOX           ",
"          XXOOOOOOOOXX          ",
"         X**OO**XXOO**X         ",
"        X**OXXO**XXXO**X        "
};
