/* XPM */
static char *_1222b50f91e431b8e7394ec1e6c2e3dpAq0HgVXqDDMlyuF[] = {
/* columns rows colors chars-per-pixel */
"32 32 3 1 ",
"  c #000100",
". c #010001",
"X c #010101",
/* pixels */
"....... . . ... . . .   . ..... ",
"....... ....    .... .......  ..",
"....  .  .....    ...    .. . . ",
"......  . . ... . . ..  ....... ",
" . . .........    .  .. .. .. ..",
".  ..   .   .   .   . .      ...",
".. ........ ..     ... . ... .  ",
" ... .  ....   .. .. .    . .  .",
" . .. ... ...    .  ...... .... ",
".        .    . ..  .. . . . ...",
"     ..... .  .   .. ..... ..   ",
"  ... .. ... ..   ...  . ..  . .",
"... .......... .. .  .... .... .",
"..     . .    .  .    .  .      ",
"         ...  ..   .. . ....   .",
".  .. .   ......   .   .  ......",
" .   ..   .... . XXX.. . ..... .",
"  .  .  ....   .XX.. .  .. .   .",
"  . . .  . ...   .... .  .. .   ",
"XX. .. . .   .........   .   ...",
"..  .  ...    .  .. . .. ..   . ",
".... ...  ..... .  ....   . ..  ",
" . ...   . .. .. . ....     .. .",
".       . . ... . .  .. X ... . ",
".. ... .....  . .. ...  XX......",
".  ....  ...... . ... ..XX......",
" .  .    .    .. .  .   X.... ..",
"...  ...   ... . .   .  X... ...",
". ...     . . . . .. ..  ..   ..",
"... . ...       ...  .. .   . . ",
" ....  .  .. ......    .  .. ...",
"   ..    .. . ..  ..  .     ...."
};
