/* XPM */
static char *c0c5734104ed4134d692da299a11fcb08Eh6F0FeoNoDljKX[] = {
/* columns rows colors chars-per-pixel */
"32 32 4 1 ",
"  c None",
". c #F83800",
"X c #AC7C00",
"o c #FFA440",
/* pixels */
"                                ",
"                                ",
"              .....             ",
"            ......o             ",
"           ......oo             ",
"           ...........          ",
"           XXXooXooo            ",
"          XooXooXXoooo          ",
"          XooXXoooooooo         ",
"         XXooXXoooXoooo         ",
"         XXoooooXXXXXX          ",
"          XXoooooXXXXX          ",
"            Xoooooooo           ",
"           X...ooo              ",
"          X.XXX.X               ",
"          X.XXXX.X              ",
"         XX.XXXXX..oo           ",
"         X..XXXXXXXoooo         ",
"         X...XXXXXXoooo         ",
"          ...XXXXXXXooo         ",
"          ....XXXXXXooo         ",
"          ......XXX.            ",
"          ..........            ",
"          .........X            ",
"       XXXX.......X..           ",
"       XXXX.....XX...           ",
"       XXXX....X....            ",
"       XXXX...  ....            ",
"       XXXX     XXXX            ",
"       XX       XXXX            ",
"       X        XXXXXX          ",
"                XXXXXX          "
};
