/* XPM */
static char *result[] = {
/* columns rows colors chars-per-pixel */
"32 32 32 1 ",
"  c #2E1E22",
". c #5C2E00",
"X c #433C00",
"o c #4D3B39",
"O c #68363D",
"+ c #645200",
"@ c #534721",
"# c #705654",
"$ c #6E5269",
"% c #747676",
"& c #964F00",
"* c #AB6A0F",
"= c #9D704C",
"- c #925177",
"; c #8F7772",
": c #F9872E",
"> c #D7906E",
", c #8F7287",
"< c #B66C8E",
"1 c #928A8C",
"2 c #A5889C",
"3 c #B7A099",
"4 c #B89AAE",
"5 c #B4B8B8",
"6 c #EEBE93",
"7 c #FFE1AF",
"8 c #D6DADA",
"9 c gray85",
"0 c #D9D9DD",
"q c gray95",
"w c white",
"e c None",
/* pixels */
"eeeeeeeeeeeeeeeeeeeeeeeeeeeeeeee",
"eeeeeeeeeeeeeeoeeeeeeeeeeeeeeeee",
"eeeeeeeeeooooeooeeoooeeeeeeeeeee",
"eeeeeeeeeeo#;oo#oo;##oeeeeeeeeee",
"eeeeeeeeoooo#;#;#;#ooeeeeeeeeeee",
"eeeeeeoo##;;3;;3;;3;#oooeeeeeeee",
"eeeeeo##;;;3;;;33;;3;;##oeeeeeee",
"eeeeeeoo#;33;;;;;;;33;;;#oeeeeee",
"eeeeeeo#;;;3;;;;;;;3;;#ooeeeeeee",
"eeeeeo#;;;;;3;;33;3;;;;#ooeeeeee",
"eeeeeo;;##;;;#33;#;;;#;;##oeeeee",
"eeeeo;;##;;;#o;;#o#;;;#o###oeeee",
"eeeooooo#;;#oo;#o6o#;;##oooeeeee",
"eeeeeoo#;;#o6o#o666o#;;##oeeeeee",
"eeeeeo##;#o@@@o77@@@o#;o#oeeeeee",
"eeeeeo#o#o69 07770 96o#o#oeeeeee",
"eeeeeoo>@>6q 17771 q6>@>ooeeeeee",
"eeeeeoe@@>6w..777..w6>@@eoeeeeee",
"eeeeeeee@=67&&777&&76=@eeeeeeeee",
"eeeeeeeee@>677777776>@eeeeeeeeee",
"eeeeeeeee%@=>66666>=@%eeeeeeeeee",
"eeeeeeee%8*@@@@@@@@@*8%eeeeeeeee",
"eeeeeee%8w***+5%5+***w8%eeeeeeee",
"eeeeee@=w8+*::585::*+8w=@eeeeeee",
"eeeeee@775X*::*+*::*X577@eeeeeee",
"eeeeee@76@X+*:+X+:*+X@67@eeeeeee",
"eeeeeee@@eO,++222++,Oe@@eeeeeeee",
"eeeeeeeeeeO,42,,,24,Oeeeeeeeeeee",
"eeeeeeeeeeO$42$$$24$Oeeeeeeeeeee",
"eeeeeeeeeeeO--OOO--Oeeeeeeeeeeee",
"eeeeeeeeeeeO<<OeO<<Oeeeeeeeeeeee",
"eeeeeeeeeeeeOOeeeOOeeeeeeeeeeeee"
};
