/* XPM */
static char *db6c07d22a4a481d9fc52645de09fb9fFMFaBn87ez1KYvOm[] = {
/* columns rows colors chars-per-pixel */
"32 32 13 1 ",
"  c #000101",
". c #010101",
"X c #207C8C",
"o c #217C8C",
"O c #207D8C",
"+ c #217D8C",
"@ c #207C8D",
"# c #217C8D",
"$ c #217D8D",
"% c #BCEEEE",
"& c #BDEEEE",
"* c #BCEFEF",
"= c #BDEFEF",
/* pixels */
"X&======&.$&==&XX========.+====+",
"&XXXXXXX$.&+++o &XXXX$XXX.=$+++ ",
"&XXX$$XXX.&XoXX =XXX$$$$X.=$oo+ ",
"&XXXXX$$X.&$oXX =XXX$$$XX.=$o+o ",
"=+$$XXXXX.=.X$X.=X@@@@XXX & ooo ",
"=+$$X$X$X.X....$=X@@X@XXX X    o",
"=+X$X$$$X.&&&&=.=$$@XXXXX &=&&& ",
"=+XXXXX$X.&$$XX.=$$$XXXXX &@ooo ",
"=+OOXXX$$.=X$$X.=$X$XXXXX.=X$XX ",
"=+XXXXXX$.=X$X$.=XXX$XXXX.=X$$X.",
"  XXXXXX.=XXXXX...X$$XXX.=X$XX$.",
"&&  XXXX.=XXXXX.&&..X$XX.=XX$XX.",
"&X==....=X$$$$$.&X&=....&Xoo$$$.",
"&XXX&&=.=XXXXXX.&XXX&=& &XXoXX$.",
"&XXXXXX.=XXXXX..=XXXXXX &Xoo++..",
"X  ....X=......XX....  X& .  ..+",
"o========.X====XX========.X====X",
"=oooXXXXo.=$X$$.=XXXXXXXX.=XXXX.",
"=o$oX$$Xo =XX$X.=XXX$XX$X.=XXXX.",
"=@$$$XXXo =$X$X.=X$$XXX$X.=XXXX.",
"=@XXXXXXo = XXX.=X$XX$$XX.=.X$X.",
"=@XX$X$$o o....X=XXX$$XXX.X....X",
"=$$XXXXXX =====.=XX$X$$$X.=====.",
"=$X$X$XXX =oXXX.=X$X$X$$X.=XXXX.",
"=Xooo@@@o &o@@X.=$X$XXXXX.=X$$X.",
"=Xoo@@X@o =oX@X.=$XXXXXXX.=X$$X.",
"  ooXXXX &o@XXX...X$XXXX.=XXXX$.",
"=& .XXXX =o@XXX &=..XXXo.=XXXXX.",
"&X&=....=oo@XXX.&o=&  ..=XXXX$$.",
"&XXX===.=oooXXX.&ooo&=&.=$XXX$X.",
"=XX$$$X.=oXXXX  =Xo@ooo =oX$XX..",
"X .....X=..... XX   .  o= .....X"
};
